<svg width="40" height="40" viewBox="0 0 40 40" fill="none" xmlns="http://www.w3.org/2000/svg">
<rect width="40" height="40" rx="20" fill="#155E75"/>
<g clip-path="url(#clip0_109_66)">
<path d="M17.5 14V12.5C17.5 11.837 17.7634 11.2011 18.2322 10.7322C18.7011 10.2634 19.337 10 20 10C20.663 10 21.2989 10.2634 21.7678 10.7322C22.2366 11.2011 22.5 11.837 22.5 12.5V14M20.5 17C20.5 17.2761 20.2761 17.5 20 17.5C19.7239 17.5 19.5 17.2761 19.5 17C19.5 16.7239 19.7239 16.5 20 16.5C20.2761 16.5 20.5 16.7239 20.5 17ZM16.5 14H23.5C24.0523 14 24.5 14.4477 24.5 15V19C24.5 19.5523 24.0523 20 23.5 20H16.5C15.9477 20 15.5 19.5523 15.5 19V15C15.5 14.4477 15.9477 14 16.5 14Z" stroke="white" stroke-width="2" stroke-linecap="round" stroke-linejoin="round"/>
</g>
<path d="M8.518 24.632H9.184L10.582 29H10.024L9.166 26.09L8.854 25.1H8.848L8.536 26.09L7.672 29H7.114L8.518 24.632ZM8.158 27.224H9.544L9.646 27.65H8.056L8.158 27.224ZM10.8355 28.658L12.6055 26.294H10.9435L10.9795 25.88H13.2415V26.234L11.4895 28.58L13.2715 28.586L13.2475 29H10.8355V28.658ZM14.8322 29.066C14.6082 29.066 14.4202 29.016 14.2682 28.916C14.1162 28.812 14.0022 28.664 13.9262 28.472C13.8542 28.28 13.8182 28.048 13.8182 27.776V25.88H14.3582V27.752C14.3582 28.032 14.4102 28.248 14.5142 28.4C14.6222 28.552 14.7942 28.628 15.0302 28.628C15.1502 28.628 15.2622 28.606 15.3662 28.562C15.4702 28.514 15.5642 28.456 15.6482 28.388C15.7322 28.316 15.8042 28.246 15.8642 28.178V25.88H16.3982V28.13C16.3982 28.302 16.3982 28.458 16.3982 28.598C16.4022 28.738 16.4082 28.872 16.4162 29H16.0262L15.9122 28.526H15.9002C15.8282 28.61 15.7382 28.694 15.6302 28.778C15.5222 28.862 15.4002 28.932 15.2642 28.988C15.1282 29.04 14.9842 29.066 14.8322 29.066ZM17.2402 26.708C17.2402 26.556 17.2382 26.416 17.2342 26.288C17.2342 26.156 17.2322 26.02 17.2282 25.88L17.6962 25.862L17.7262 26.33H17.7502C17.8222 26.254 17.9082 26.176 18.0082 26.096C18.1082 26.016 18.2222 25.95 18.3502 25.898C18.4782 25.842 18.6202 25.814 18.7762 25.814C18.9522 25.814 19.1142 25.856 19.2622 25.94C19.4142 26.024 19.5262 26.162 19.5982 26.354H19.6102C19.6942 26.27 19.7882 26.188 19.8922 26.108C20.0002 26.024 20.1202 25.954 20.2522 25.898C20.3842 25.842 20.5282 25.814 20.6842 25.814C20.8242 25.814 20.9522 25.838 21.0682 25.886C21.1842 25.934 21.2862 26.006 21.3742 26.102C21.4662 26.198 21.5362 26.326 21.5842 26.486C21.6362 26.642 21.6622 26.83 21.6622 27.05V29H21.1282V27.134C21.1282 26.918 21.1002 26.746 21.0442 26.618C20.9882 26.49 20.9142 26.398 20.8222 26.342C20.7302 26.282 20.6222 26.252 20.4982 26.252C20.3742 26.252 20.2582 26.278 20.1502 26.33C20.0462 26.382 19.9522 26.446 19.8682 26.522C19.7842 26.594 19.7142 26.666 19.6582 26.738L19.6882 26.582C19.7002 26.674 19.7082 26.76 19.7122 26.84C19.7162 26.916 19.7182 27.004 19.7182 27.104V29H19.1902V27.116C19.1902 26.956 19.1702 26.812 19.1302 26.684C19.0902 26.552 19.0262 26.448 18.9382 26.372C18.8542 26.292 18.7382 26.252 18.5902 26.252C18.4702 26.252 18.3582 26.276 18.2542 26.324C18.1542 26.372 18.0622 26.43 17.9782 26.498C17.8982 26.566 17.8302 26.634 17.7742 26.702V29H17.2402V26.708ZM23.2162 29.066C23.0322 29.066 22.8702 29.028 22.7302 28.952C22.5942 28.876 22.4882 28.772 22.4122 28.64C22.3362 28.508 22.2982 28.356 22.2982 28.184C22.2982 28.004 22.3322 27.858 22.4002 27.746C22.4722 27.634 22.5662 27.548 22.6822 27.488C22.8022 27.428 22.9342 27.388 23.0782 27.368C23.2222 27.344 23.3682 27.332 23.5162 27.332H24.1762V26.954C24.1762 26.854 24.1682 26.762 24.1522 26.678C24.1402 26.59 24.1122 26.514 24.0682 26.45C24.0282 26.382 23.9642 26.33 23.8762 26.294C23.7882 26.254 23.6682 26.234 23.5162 26.234C23.3522 26.234 23.1902 26.254 23.0302 26.294C22.8742 26.334 22.7302 26.382 22.5982 26.438L22.5082 26.054C22.6162 26.006 22.7302 25.964 22.8502 25.928C22.9742 25.892 23.1002 25.864 23.2282 25.844C23.3602 25.824 23.4842 25.814 23.6002 25.814C23.8402 25.814 24.0342 25.844 24.1822 25.904C24.3302 25.96 24.4422 26.04 24.5182 26.144C24.5942 26.244 24.6442 26.362 24.6682 26.498C24.6962 26.634 24.7102 26.78 24.7102 26.936V28.232C24.7102 28.348 24.7122 28.478 24.7162 28.622C24.7242 28.762 24.7302 28.888 24.7342 29H24.3382L24.2302 28.52H24.2182C24.1182 28.68 23.9802 28.812 23.8042 28.916C23.6322 29.016 23.4362 29.066 23.2162 29.066ZM23.3842 28.688C23.5642 28.688 23.7302 28.64 23.8822 28.544C24.0382 28.444 24.1402 28.314 24.1882 28.154V27.638H23.5882C23.5082 27.638 23.4222 27.642 23.3302 27.65C23.2422 27.658 23.1582 27.678 23.0782 27.71C22.9982 27.738 22.9342 27.788 22.8862 27.86C22.8382 27.932 22.8142 28.03 22.8142 28.154C22.8142 28.322 22.8662 28.454 22.9702 28.55C23.0742 28.642 23.2122 28.688 23.3842 28.688ZM25.543 29V26.762C25.543 26.578 25.541 26.418 25.537 26.282C25.533 26.142 25.529 26.008 25.525 25.88L25.999 25.862L26.041 26.414H26.053C26.165 26.234 26.307 26.088 26.479 25.976C26.651 25.864 26.867 25.814 27.127 25.826V26.306C26.895 26.29 26.691 26.324 26.515 26.408C26.339 26.488 26.195 26.618 26.083 26.798V29H25.543ZM27.6939 25.88L28.2339 25.862V29H27.6939V25.88ZM27.9639 25.322C27.8679 25.322 27.7859 25.292 27.7179 25.232C27.6499 25.172 27.6159 25.094 27.6159 24.998C27.6159 24.898 27.6499 24.818 27.7179 24.758C27.7859 24.694 27.8679 24.662 27.9639 24.662C28.0599 24.662 28.1399 24.694 28.2039 24.758C28.2719 24.818 28.3059 24.898 28.3059 24.998C28.3059 25.094 28.2719 25.172 28.2039 25.232C28.1399 25.292 28.0599 25.322 27.9639 25.322ZM29.088 24.512L29.628 24.494V29H29.088V24.512ZM30.4766 24.512L31.0166 24.494V29H30.4766V24.512Z" fill="white"/>
<defs>
<clipPath id="clip0_109_66">
<rect width="12" height="12" fill="white" transform="translate(14 9)"/>
</clipPath>
</defs>
</svg>
