<svg width="217" height="78" viewBox="0 0 217 78" fill="none" xmlns="http://www.w3.org/2000/svg">
<path d="M76.88 48L71.24 31.2H76.808L79.592 41.448H79.736L82.472 31.2H87.056L89.912 41.4H90.032L92.864 31.2H98.24L92.84 48H87.584L84.632 38.28H84.56L81.896 48H76.88ZM95.6647 48L101.689 31.2H107.665L113.785 48H108.169L104.713 36.648H104.617L101.161 48H95.6647ZM101.137 45.648V41.736H108.241V45.648H101.137ZM118.4 48V43.152L111.608 31.2H117.704L121.064 38.16H121.16L124.544 31.2H130.4L123.752 42.96V48H118.4ZM132.32 48V31.2H137.672V37.128H143.312V31.2H148.664V48H143.312V41.808H137.672V48H132.32ZM159.704 48.216C157.848 48.216 156.256 47.864 154.928 47.16C153.6 46.44 152.584 45.432 151.88 44.136C151.176 42.84 150.824 41.32 150.824 39.576C150.824 37.832 151.192 36.32 151.928 35.04C152.664 33.744 153.696 32.744 155.024 32.04C156.368 31.336 157.928 30.984 159.704 30.984C161.56 30.984 163.152 31.344 164.48 32.064C165.808 32.768 166.824 33.768 167.528 35.064C168.232 36.344 168.584 37.864 168.584 39.624C168.584 41.368 168.216 42.888 167.48 44.184C166.744 45.464 165.712 46.456 164.384 47.16C163.056 47.864 161.496 48.216 159.704 48.216ZM159.704 43.296C160.424 43.296 161.032 43.192 161.528 42.984C162.04 42.776 162.432 42.4 162.704 41.856C162.976 41.312 163.112 40.552 163.112 39.576C163.112 38.6 162.984 37.848 162.728 37.32C162.472 36.792 162.088 36.424 161.576 36.216C161.08 36.008 160.456 35.904 159.704 35.904C159 35.904 158.392 36.008 157.88 36.216C157.368 36.424 156.976 36.8 156.704 37.344C156.432 37.872 156.296 38.632 156.296 39.624C156.296 40.584 156.424 41.336 156.68 41.88C156.936 42.408 157.32 42.776 157.832 42.984C158.344 43.192 158.968 43.296 159.704 43.296ZM176.13 48.216C175.298 48.216 174.442 48.152 173.562 48.024C172.682 47.896 171.77 47.704 170.826 47.448L169.338 47.04L170.178 42.96L172.242 43.224C172.77 43.288 173.402 43.352 174.138 43.416C174.89 43.48 175.674 43.512 176.49 43.512C177.002 43.512 177.354 43.464 177.546 43.368C177.738 43.272 177.834 43.152 177.834 43.008C177.834 42.896 177.794 42.792 177.714 42.696C177.634 42.6 177.41 42.48 177.042 42.336C176.69 42.192 176.09 41.992 175.242 41.736C173.93 41.336 172.89 40.912 172.122 40.464C171.354 40.016 170.81 39.472 170.49 38.832C170.17 38.176 170.01 37.344 170.01 36.336C170.01 35.072 170.322 34.048 170.946 33.264C171.586 32.48 172.45 31.904 173.538 31.536C174.642 31.168 175.89 30.984 177.282 30.984C178.018 30.984 178.778 31.04 179.562 31.152C180.346 31.248 181.122 31.392 181.89 31.584L183.21 31.92L182.466 35.976L180.186 35.736C179.882 35.704 179.482 35.68 178.986 35.664C178.49 35.632 177.866 35.616 177.114 35.616C176.522 35.616 176.098 35.664 175.842 35.76C175.586 35.856 175.458 36.016 175.458 36.24C175.458 36.352 175.514 36.456 175.626 36.552C175.738 36.648 176.002 36.76 176.418 36.888C176.85 37.016 177.53 37.2 178.458 37.44C179.754 37.744 180.762 38.128 181.482 38.592C182.218 39.04 182.73 39.576 183.018 40.2C183.322 40.824 183.474 41.552 183.474 42.384C183.474 43.712 183.146 44.808 182.49 45.672C181.85 46.536 180.97 47.176 179.85 47.592C178.746 48.008 177.506 48.216 176.13 48.216ZM189.491 48V35.88H184.475V31.2H199.835V35.88H194.843V48H189.491Z" fill="#131313"/>
<rect width="11.5266" height="30.5831" rx="5.7633" transform="matrix(0.866003 -0.500039 0.499961 0.866048 5 28.9753)" fill="url(#paint0_linear_1234_291)"/>
<rect width="11.5266" height="30.5831" rx="5.7633" transform="matrix(0.866003 -0.500039 0.499961 0.866048 24.8424 28.7637)" fill="url(#paint1_linear_1234_291)"/>
<rect width="11.5266" height="30.5831" rx="5.7633" transform="matrix(0.866003 0.500039 -0.499961 0.866048 30.1435 23)" fill="url(#paint2_linear_1234_291)"/>
<path fill-rule="evenodd" clip-rule="evenodd" d="M55.1229 25.8875C52.3716 24.2989 48.8537 25.2415 47.2653 27.9929L46.8829 28.6553C45.9126 30.3361 45.9126 32.4068 46.8829 34.0875C47.5601 35.2607 47.1582 36.7608 45.9851 37.4381C44.812 38.1155 43.312 37.7136 42.6348 36.5404C42.5673 36.4234 42.3984 36.4234 42.3309 36.5404L37.7269 44.5156C36.1385 47.267 37.0813 50.7853 39.8325 52.3739C42.5838 53.9625 46.1017 53.0199 47.6901 50.2685C48.6721 48.5674 48.9361 46.5452 48.4239 44.649L48.3263 44.288C48.1023 43.4587 48.1758 42.6191 48.4818 41.8827C49.101 40.3922 50.1579 38.4685 51.716 38.0475C52.861 37.7381 54.9277 37.7312 55.5207 36.704L57.2285 33.7457C58.8168 30.9943 57.8741 27.4761 55.1229 25.8875Z" fill="url(#paint3_linear_1234_291)"/>
<defs>
<linearGradient id="paint0_linear_1234_291" x1="5.7633" y1="30.5831" x2="5.7633" y2="0" gradientUnits="userSpaceOnUse">
<stop stop-color="#672CF5"/>
<stop offset="1" stop-color="#2B73F4"/>
</linearGradient>
<linearGradient id="paint1_linear_1234_291" x1="5.7633" y1="30.5831" x2="5.7633" y2="0" gradientUnits="userSpaceOnUse">
<stop stop-color="#672CF5"/>
<stop offset="1" stop-color="#2B73F4"/>
</linearGradient>
<linearGradient id="paint2_linear_1234_291" x1="5.7633" y1="30.5831" x2="5.7633" y2="0" gradientUnits="userSpaceOnUse">
<stop stop-color="#672CF5"/>
<stop offset="1" stop-color="#2B73F4"/>
</linearGradient>
<linearGradient id="paint3_linear_1234_291" x1="47.4683" y1="53.1414" x2="47.4683" y2="25.1087" gradientUnits="userSpaceOnUse">
<stop stop-color="#672CF5"/>
<stop offset="1" stop-color="#2B73F4"/>
</linearGradient>
</defs>
</svg>
