<svg width="100" height="100" viewBox="0 0 100 100" fill="none" xmlns="http://www.w3.org/2000/svg">
<rect width="100" height="100" rx="50" fill="white"/>
<rect width="11.5266" height="30.5831" rx="5.7633" transform="matrix(0.866003 -0.500039 0.499961 0.866048 23.5 39.7444)" fill="url(#paint0_linear_5946_6473)"/>
<rect width="11.5266" height="30.5831" rx="5.7633" transform="matrix(0.866003 -0.500039 0.499961 0.866048 43.3438 39.5329)" fill="url(#paint1_linear_5946_6473)"/>
<rect width="11.5266" height="30.5831" rx="5.7633" transform="matrix(0.866003 0.500039 -0.499961 0.866048 48.6445 33.7692)" fill="url(#paint2_linear_5946_6473)"/>
<path d="M65.7666 38.7619C67.3549 36.0106 70.8728 35.068 73.624 36.6564C76.3753 38.245 77.3178 41.7634 75.7295 44.5148L74.0199 47.4755C73.4271 48.5021 71.3622 48.5075 70.2178 48.8166C68.6612 49.2372 67.6055 51.1581 66.9853 52.6464C66.6778 53.3841 66.6036 54.2257 66.8281 55.0568L66.9256 55.4181C67.4371 57.3143 67.1729 59.3361 66.1914 61.0373C64.6031 63.7887 61.0852 64.7313 58.334 63.1427C55.5828 61.5541 54.6402 58.0357 56.2285 55.2843L60.8317 47.3095C60.8995 47.1921 61.0691 47.1922 61.1367 47.3097C61.814 48.4825 63.3134 48.8843 64.4863 48.2072C65.6593 47.5299 66.0619 46.0297 65.3848 44.8566C64.4143 43.1754 64.4143 41.1042 65.3849 39.4231L65.7666 38.7619Z" fill="url(#paint3_linear_5946_6473)"/>
<defs>
<linearGradient id="paint0_linear_5946_6473" x1="5.7633" y1="30.5831" x2="5.7633" y2="0" gradientUnits="userSpaceOnUse">
<stop stop-color="#672CF5"/>
<stop offset="1" stop-color="#2B73F4"/>
</linearGradient>
<linearGradient id="paint1_linear_5946_6473" x1="5.7633" y1="30.5831" x2="5.7633" y2="0" gradientUnits="userSpaceOnUse">
<stop stop-color="#672CF5"/>
<stop offset="1" stop-color="#2B73F4"/>
</linearGradient>
<linearGradient id="paint2_linear_5946_6473" x1="5.7633" y1="30.5831" x2="5.7633" y2="0" gradientUnits="userSpaceOnUse">
<stop stop-color="#672CF5"/>
<stop offset="1" stop-color="#2B73F4"/>
</linearGradient>
<linearGradient id="paint3_linear_5946_6473" x1="65.9698" y1="63.9104" x2="65.9698" y2="35.8778" gradientUnits="userSpaceOnUse">
<stop stop-color="#672CF5"/>
<stop offset="1" stop-color="#2B73F4"/>
</linearGradient>
</defs>
</svg>
