<svg width="50" height="51" viewBox="0 0 50 51" fill="none" xmlns="http://www.w3.org/2000/svg">
<rect y="0.5" width="50" height="50" rx="15" fill="#041B42"/>
<path d="M34 18.5C34 20.1569 29.9706 21.5 25 21.5C20.0294 21.5 16 20.1569 16 18.5M34 18.5C34 16.8431 29.9706 15.5 25 15.5C20.0294 15.5 16 16.8431 16 18.5M34 18.5V32.5C34 33.2956 33.0518 34.0587 31.364 34.6213C29.6761 35.1839 27.3869 35.5 25 35.5C22.6131 35.5 20.3239 35.1839 18.636 34.6213C16.9482 34.0587 16 33.2956 16 32.5V18.5M16 25.5C16 26.2956 16.9482 27.0587 18.636 27.6213C20.3239 28.1839 22.6131 28.5 25 28.5C27.3869 28.5 29.6761 28.1839 31.364 27.6213C33.0518 27.0587 34 26.2956 34 25.5" stroke="white" stroke-width="2" stroke-linecap="round" stroke-linejoin="round"/>
</svg>
