<svg width="50" height="51" viewBox="0 0 50 51" fill="none" xmlns="http://www.w3.org/2000/svg">
<rect y="0.5" width="50" height="50" rx="15" fill="#041B42"/>
<path d="M34.0001 18.5C34.0001 20.1569 29.9706 21.5 25.0001 21.5C20.0295 21.5 16.0001 20.1569 16.0001 18.5M34.0001 18.5C34.0001 16.8431 29.9706 15.5 25.0001 15.5C20.0295 15.5 16.0001 16.8431 16.0001 18.5M34.0001 18.5V21.5M16.0001 18.5L16.0001 32.5C15.9945 32.9809 16.3359 33.4552 16.9954 33.883C17.6549 34.3107 18.6133 34.6793 19.7897 34.9577C20.9661 35.2361 22.3261 35.4162 23.755 35.4827C25.1839 35.5493 26.6398 35.5003 28.0001 35.34M34.0001 25.5L31.0001 30.5H35.0001L32.0001 35.5M16.0001 25.5C16.0015 25.9675 16.3308 26.4285 16.9615 26.8461C17.5923 27.2636 18.5071 27.6263 19.633 27.9051C20.7589 28.1839 22.0648 28.3711 23.4463 28.4519C24.8278 28.5326 26.2468 28.5045 27.5901 28.37" stroke="white" stroke-width="2" stroke-linecap="round" stroke-linejoin="round"/>
</svg>
